<svg width="160" height="160" viewBox="0 0 160 160" fill="none" xmlns="http://www.w3.org/2000/svg">
  <rect width="160" height="160" rx="36" fill="#111827"/>
  <rect x="16" y="16" width="128" height="128" rx="28" fill="url(#bg)"/>
  <path d="M44 54C44 48.4772 48.4772 44 54 44H106C111.523 44 116 48.4772 116 54V88C116 93.5228 111.523 98 106 98H80L58 114V98H54C48.4772 98 44 93.5228 44 88V54Z" fill="#EFF6FF" fill-opacity="0.95"/>
  <path d="M62 63H98" stroke="#2563EB" stroke-width="8" stroke-linecap="round"/>
  <path d="M62 79H88" stroke="#2563EB" stroke-width="8" stroke-linecap="round"/>
  <path d="M118 42L121.367 48.8233L128.896 49.9171L123.448 55.2267L124.734 62.7267L118 59.1867L111.266 62.7267L112.552 55.2267L107.104 49.9171L114.633 48.8233L118 42Z" fill="#FACC15"/>
  <defs>
    <linearGradient id="bg" x1="28" y1="24" x2="132" y2="144" gradientUnits="userSpaceOnUse">
      <stop stop-color="#38BDF8"/>
      <stop offset="1" stop-color="#2563EB"/>
    </linearGradient>
  </defs>
</svg>