<svg width="160" height="160" viewBox="0 0 160 160" fill="none" xmlns="http://www.w3.org/2000/svg">
  <rect width="160" height="160" rx="36" fill="#0F172A"/>
  <rect x="16" y="16" width="128" height="128" rx="28" fill="url(#bg)"/>
  <path d="M34 94L55 76C60 72 66 70 73 70H84" stroke="#F8FAFC" stroke-width="10" stroke-linecap="round" stroke-linejoin="round"/>
  <path d="M126 94L105 76C100 72 94 70 87 70H76" stroke="#F8FAFC" stroke-width="10" stroke-linecap="round" stroke-linejoin="round"/>
  <path d="M63 82L76 95C78.5 97.5 82.5 97.5 85 95L97 83" stroke="#F8FAFC" stroke-width="10" stroke-linecap="round" stroke-linejoin="round"/>
  <path d="M55 76L71 92" stroke="#F8FAFC" stroke-width="10" stroke-linecap="round"/>
  <path d="M105 76L89 92" stroke="#F8FAFC" stroke-width="10" stroke-linecap="round"/>
  <path d="M48 88L62 102" stroke="#E0F2FE" stroke-width="10" stroke-linecap="round"/>
  <path d="M112 88L98 102" stroke="#E0F2FE" stroke-width="10" stroke-linecap="round"/>
  <path d="M80 42L83.5945 49.2828L91.6336 50.451L85.8168 56.1211L87.1891 64.126L80 60.346L72.8109 64.126L74.1832 56.1211L68.3664 50.451L76.4055 49.2828L80 42Z" fill="#FDE68A"/>
  <defs>
    <linearGradient id="bg" x1="28" y1="24" x2="132" y2="144" gradientUnits="userSpaceOnUse">
      <stop stop-color="#0EA5E9"/>
      <stop offset="1" stop-color="#2563EB"/>
    </linearGradient>
  </defs>
</svg>
