<svg width="160" height="160" viewBox="0 0 160 160" fill="none" xmlns="http://www.w3.org/2000/svg">
  <rect width="160" height="160" rx="36" fill="#0F172A"/>
  <rect x="16" y="16" width="128" height="128" rx="28" fill="url(#bg)"/>
  <path d="M50 64C50 47.4315 63.4315 34 80 34C96.5685 34 110 47.4315 110 64" stroke="#F8FAFC" stroke-width="10" stroke-linecap="round"/>
  <path d="M44 64H116L110 118H50L44 64Z" stroke="#F8FAFC" stroke-width="10" stroke-linejoin="round"/>
  <path d="M67 82L73.1672 94.497L87 96.5066L77 106.255L79.3607 120L67 113.5L54.6393 120L57 106.255L47 96.5066L60.8328 94.497L67 82Z" fill="#F8FAFC" fill-opacity="0.92"/>
  <path d="M104 78L106.699 83.4703L112.736 84.3475L108.368 88.6056L109.399 94.618L104 91.7798L98.6008 94.618L99.632 88.6056L95.2639 84.3475L101.301 83.4703L104 78Z" fill="#FDE68A"/>
  <defs>
    <linearGradient id="bg" x1="28" y1="24" x2="132" y2="144" gradientUnits="userSpaceOnUse">
      <stop stop-color="#FB7185"/>
      <stop offset="1" stop-color="#F59E0B"/>
    </linearGradient>
  </defs>
</svg>
