<svg width="160" height="160" viewBox="0 0 160 160" fill="none" xmlns="http://www.w3.org/2000/svg">
  <rect width="160" height="160" rx="36" fill="#0F172A"/>
  <rect x="16" y="16" width="128" height="128" rx="28" fill="url(#bg)"/>
  <path d="M44 110C54 97 64 87 76 80C87 73 97 63 108 48" stroke="#F8FAFC" stroke-width="10" stroke-linecap="round" stroke-linejoin="round"/>
  <circle cx="46" cy="110" r="7" fill="#F8FAFC"/>
  <circle cx="64" cy="92" r="6" fill="#D1FAE5"/>
  <circle cx="82" cy="78" r="5" fill="#A7F3D0"/>
  <path d="M108 40V82" stroke="#F8FAFC" stroke-width="10" stroke-linecap="round"/>
  <path d="M108 44L124 52L108 60V44Z" fill="#F8FAFC"/>
  <path d="M52 52L56.1145 60.3372L65.3148 61.6738L58.6574 68.1628L60.2289 77.3262L52 73L43.7711 77.3262L45.3426 68.1628L38.6852 61.6738L47.8855 60.3372L52 52Z" fill="#FDE68A"/>
  <defs>
    <linearGradient id="bg" x1="28" y1="24" x2="132" y2="144" gradientUnits="userSpaceOnUse">
      <stop stop-color="#14B8A6"/>
      <stop offset="1" stop-color="#22C55E"/>
    </linearGradient>
  </defs>
</svg>
