<svg width="160" height="160" viewBox="0 0 160 160" fill="none" xmlns="http://www.w3.org/2000/svg">
  <rect width="160" height="160" rx="36" fill="#111827"/>
  <rect x="16" y="16" width="128" height="128" rx="28" fill="url(#bg)"/>
  <path d="M52 114H108" stroke="#FEF3C7" stroke-width="10" stroke-linecap="round"/>
  <path d="M62 114V52L80 70L98 52V114" stroke="#FEF3C7" stroke-width="10" stroke-linecap="round" stroke-linejoin="round"/>
  <circle cx="80" cy="46" r="14" fill="#FEF3C7"/>
  <path d="M120 38L123.816 45.7329L132.349 46.9722L126.174 52.9912L127.631 61.4905L120 57.478L112.369 61.4905L113.826 52.9912L107.651 46.9722L116.184 45.7329L120 38Z" fill="#FDE68A"/>
  <path d="M40 38L43.816 45.7329L52.349 46.9722L46.174 52.9912L47.631 61.4905L40 57.478L32.369 61.4905L33.826 52.9912L27.651 46.9722L36.184 45.7329L40 38Z" fill="#FDE68A"/>
  <defs>
    <linearGradient id="bg" x1="28" y1="24" x2="132" y2="144" gradientUnits="userSpaceOnUse">
      <stop stop-color="#7C3AED"/>
      <stop offset="1" stop-color="#EC4899"/>
    </linearGradient>
  </defs>
</svg>