<svg width="256" height="256" viewBox="0 0 256 256" fill="none" xmlns="http://www.w3.org/2000/svg">
  <defs>
    <mask id="safeloot-mark-mask">
      <rect width="256" height="256" fill="black" />
      <path d="M128 12C163 12 196 20 226 36V104C226 165 191 216 128 244C65 216 30 165 30 104V36C60 20 93 12 128 12Z" fill="white" />
      <path d="M67 60C84 50 104 45 128 45C148 45 168 48 188 55V83C168 75 150 71 133 71C121 71 111 73 103 77C96 81 93 86 93 93C93 99 97 104 106 108C113 111 126 115 144 119C167 124 183 131 194 141C205 151 211 165 211 184C211 202 204 216 190 226C176 236 157 241 132 241C102 241 76 234 54 220V192C78 205 102 211 126 211C140 211 151 209 159 204C167 199 171 192 171 183C171 176 168 170 160 166C152 162 139 158 121 154C98 149 81 142 70 133C58 123 52 110 52 92C52 79 57 68 67 60Z" fill="black" />
      <path d="M78 76H205L189 103H62L78 76Z" fill="black" />
      <path d="M65 145H193L178 171H80L65 145Z" fill="black" />
    </mask>
  </defs>
  <rect width="256" height="256" fill="#00B85C" mask="url(#safeloot-mark-mask)" />
</svg>
